# xmcd
#
# Track frame offsets:
#	150
#	12532
#	25835
#	37859
#	50163
#	60709
#	72876
#	86181
#	98218
#	111194
#	122191
#	131533
#	140271
#	153695
#	166018
#	175624
#	189434
#	199986
#	209183
#	218317
#	228691
#	238362
#	247770
#	257145
#	268048
#	278888
#	289434
#	301221
#	312565
#	323584
#	332961
#
# Disc length: 4576 seconds
#
# Revision: 0
# Processed by: cddbd v1.4PL0 Copyright (c) Steve Scherf et al.
# Submitted via: EasyCDDAExtractor 4.6.9.1
#
DISCID=d911de1f
DTITLE=Slim Whitman - Rose Marie CD 4
DYEAR=1996
DGENRE=Country
TTITLE0=Smoke Signals(1957)
TTITLE1=Among My Souvenirs(1959)
TTITLE2=Tree In The Meadow(1996)
TTITLE3=At The Close Of A Long, Long Day(1962)
TTITLE4=I Must Have Been Blind(1957)
TTITLE5=You're The Only One(1962)
TTITLE6=Riding The Range For Jesus(1962)
TTITLE7=Roundup In Glory(1963)
TTITLE8=At the End Of Nowhere(1987)
TTITLE9=Careless Love(1957)
TTITLE10=Hawaiian Cowboy(1960)
TTITLE11=Warm, Warm Lips(1963)
TTITLE12=I'll Take You Home Again, Kathleen(1957)
TTITLE13=Since You've Gone(1957)
TTITLE14=An Amateur In Love(1957)
TTITLE15=Lovesick Blues(1957)
TTITLE16=Many Times(1957)
TTITLE17=Forever(1957)
TTITLE18=Unchain My Heart(1957)
TTITLE19=Once In A Lifetime(1961)
TTITLE20=Tormented(1958)
TTITLE21=Candy Kisses(1958)
TTITLE22=Hush-A-Bye(1957)
TTITLE23=Careless Hands(1958)
TTITLE24=A Very Precious Love(1958)
TTITLE25=Put Your Trust In Me(1958)
TTITLE26=When It's Springtime In The Rockies(1958)
TTITLE27=At the End Of Nowhere(1958)
TTITLE28=Mexicali Rose(1959)
TTITLE29=My Best To You(1959)
TTITLE30=Cowpoke(1959)
EXTD=
EXTT0=
EXTT1=
EXTT2=
EXTT3=
EXTT4=
EXTT5=
EXTT6=
EXTT7=
EXTT8=
EXTT9=
EXTT10=
EXTT11=
EXTT12=
EXTT13=
EXTT14=
EXTT15=
EXTT16=
EXTT17=
EXTT18=
EXTT19=
EXTT20=
EXTT21=
EXTT22=
EXTT23=
EXTT24=
EXTT25=
EXTT26=
EXTT27=
EXTT28=
EXTT29=
EXTT30=
PLAYORDER=
